<svg viewBox="0 0 100 100" xmlns="http://www.w3.org/2000/svg">
  <defs>
    <!-- Optimized gradient for small sizes -->
    <linearGradient id="faviconGrad" x1="0%" y1="0%" x2="100%" y2="100%">
      <stop offset="0%" style="stop-color:#0ea5e9"/>
      <stop offset="100%" style="stop-color:#0c4a6e"/>
    </linearGradient>
  </defs>
  
  <!-- Simplified lambda triangle - more prominent for small sizes -->
  <path d="M50 15 L35 40 L25 65 L35 65 L42 45 L50 30 L58 45 L65 65 L75 65 L65 40 Z" 
        fill="url(#faviconGrad)"/>
  
  <!-- Simplified F - moved closer -->
  <path d="M22 50 L22 85 L29 85 L29 70 L39 70 L39 65 L29 65 L29 55 L42 55 L42 50 Z" 
        fill="#1e293b"/>
  
  <!-- Simplified M - positioned for better balance -->
  <path d="M57 50 L57 85 L64 85 L64 60 L67 70 L70 60 L70 85 L77 85 L77 50 L70 50 L67 65 L64 50 Z" 
        fill="#1e293b"/>
</svg>